<?php xml version="1.0" encoding="utf-8"?>
<!-- Generator: Adobe Illustrator 17.0.0, SVG Export Plug-In . SVG Version: 6.00 Build 0)  -->
<!DOCTYPE svg PUBLIC "-//W3C//DTD SVG 1.1//EN" "http://www.w3.org/Graphics/SVG/1.1/DTD/svg11.dtd">
<svg version="1.1" id="Capa_1" xmlns="http://www.w3.org/2000/svg" xmlns:xlink="http://www.w3.org/1999/xlink" x="0px" y="0px"
	 width="31.512px" height="31.512px" viewBox="0 0 31.512 31.512" enable-background="new 0 0 31.512 31.512" xml:space="preserve">
<path fill="#51256A" d="M15.756,31.512L15.756,31.512C7.09,31.512,0,24.422,0,15.756l0,0C0,7.09,7.09,0,15.756,0l0,0
	c8.666,0,15.756,7.09,15.756,15.756l0,0C31.512,24.422,24.422,31.512,15.756,31.512z"/>
<g>
	<path fill="#FFFFFF" stroke="#FFFFFF" stroke-miterlimit="10" d="M11.274,19.104H22.32c1.253,0,2.274-1.022,2.274-2.274v-4.648
		c0-0.004,0-0.012,0-0.016c0-0.012,0-0.021,0-0.033c0-0.008,0-0.016-0.004-0.025c0-0.008-0.004-0.021-0.004-0.029
		c0-0.008-0.004-0.016-0.004-0.025c-0.004-0.008-0.004-0.016-0.008-0.029c-0.004-0.008-0.004-0.016-0.008-0.025
		c-0.004-0.008-0.004-0.016-0.008-0.025c-0.004-0.008-0.008-0.016-0.012-0.029c-0.004-0.008-0.008-0.016-0.012-0.021
		c-0.004-0.008-0.008-0.016-0.012-0.025s-0.008-0.012-0.012-0.021c-0.004-0.008-0.012-0.016-0.016-0.025s-0.008-0.012-0.016-0.021
		c-0.004-0.008-0.012-0.012-0.016-0.021s-0.012-0.012-0.016-0.021c-0.004-0.008-0.012-0.012-0.016-0.016
		c-0.008-0.008-0.012-0.012-0.021-0.021c-0.008-0.004-0.012-0.012-0.021-0.016c-0.008-0.004-0.016-0.012-0.025-0.016
		c-0.008-0.004-0.012-0.008-0.021-0.012c-0.008-0.004-0.016-0.008-0.025-0.016c-0.008-0.004-0.016-0.008-0.025-0.012
		c-0.008-0.004-0.016-0.008-0.025-0.012s-0.016-0.008-0.025-0.012c-0.008-0.004-0.016-0.004-0.025-0.008
		c-0.008-0.004-0.021-0.008-0.029-0.008s-0.016-0.004-0.021-0.004c-0.012-0.004-0.021-0.004-0.033-0.004
		c-0.004,0-0.008-0.004-0.016-0.004l-14-1.932V7.744c0-0.021,0-0.041-0.004-0.058c0-0.004,0-0.008-0.004-0.016
		c0-0.012-0.004-0.025-0.004-0.037C10.1,7.621,10.1,7.613,10.095,7.6c0-0.008-0.004-0.012-0.004-0.021
		c-0.004-0.012-0.008-0.025-0.012-0.037c0-0.004-0.004-0.012-0.004-0.016c-0.004-0.012-0.008-0.021-0.016-0.033
		c-0.004-0.004-0.004-0.012-0.008-0.016c-0.004-0.008-0.008-0.016-0.016-0.025c-0.004-0.008-0.008-0.012-0.012-0.021
		c-0.004-0.008-0.008-0.012-0.012-0.021c-0.004-0.008-0.012-0.016-0.016-0.025C9.988,7.382,9.984,7.378,9.98,7.374
		C9.972,7.365,9.964,7.357,9.955,7.349C9.951,7.345,9.947,7.341,9.943,7.337C9.935,7.328,9.927,7.32,9.914,7.312
		C9.91,7.308,9.902,7.304,9.898,7.299C9.889,7.291,9.881,7.287,9.873,7.279C9.861,7.271,9.848,7.262,9.84,7.258
		C9.836,7.254,9.832,7.254,9.828,7.25C9.811,7.242,9.791,7.234,9.774,7.225L6.738,5.948C6.453,5.829,6.128,5.96,6.008,6.245
		c-0.119,0.284,0.012,0.61,0.297,0.729L9,8.111v2.522v0.4v3.065v2.74v3.461c0,1.154,0.865,2.11,1.982,2.254
		c-0.202,0.338-0.321,0.733-0.321,1.154c0,1.24,1.009,2.246,2.246,2.246s2.246-1.009,2.246-2.246c0-0.412-0.111-0.803-0.309-1.133
		h5.002c-0.198,0.334-0.309,0.721-0.309,1.133c0,1.24,1.009,2.246,2.246,2.246c1.236,0,2.246-1.009,2.246-2.246
		c0-1.236-1.009-2.246-2.246-2.246H11.274c-0.643,0-1.162-0.523-1.162-1.162v-1.508C10.45,18.989,10.849,19.104,11.274,19.104z
		 M14.043,23.702c0,0.626-0.511,1.133-1.133,1.133s-1.133-0.511-1.133-1.133c0-0.622,0.511-1.133,1.133-1.133
		S14.043,23.076,14.043,23.702z M22.918,23.702c0,0.626-0.511,1.133-1.133,1.133c-0.622,0-1.133-0.511-1.133-1.133
		c0-0.622,0.511-1.133,1.133-1.133C22.407,22.569,22.918,23.076,22.918,23.702z M22.32,17.991H11.274
		c-0.643,0-1.162-0.523-1.162-1.162v-2.74v-3.065v-0.206l13.37,1.842v4.166C23.482,17.472,22.959,17.991,22.32,17.991z"/>
</g>
</svg>
