<?php xml version="1.0" encoding="utf-8"?>
<!-- Generator: Adobe Illustrator 17.0.0, SVG Export Plug-In . SVG Version: 6.00 Build 0)  -->
<!DOCTYPE svg PUBLIC "-//W3C//DTD SVG 1.1//EN" "http://www.w3.org/Graphics/SVG/1.1/DTD/svg11.dtd">
<svg version="1.1" id="Capa_1" xmlns="http://www.w3.org/2000/svg" xmlns:xlink="http://www.w3.org/1999/xlink" x="0px" y="0px"
	 width="29.292px" height="29.292px" viewBox="0 0 29.292 29.292" enable-background="new 0 0 29.292 29.292" xml:space="preserve">
<path fill="#51256A" d="M14.646,29.292L14.646,29.292C6.591,29.292,0,22.702,0,14.646v0C0,6.591,6.591,0,14.646,0h0
	c8.055,0,14.646,6.591,14.646,14.646v0C29.292,22.702,22.701,29.292,14.646,29.292z"/>
<path fill="#FFFFFF" d="M17.886,14.065l0.345-3.655h-3.223V8.281c0,0-0.23-1.209,0.921-1.209s2.302,0,2.302,0V3.389h-3.626
	c0,0-2.36,0.115-3.28,1.611c-0.921,1.496-0.806,5.295-0.806,5.295H8.333v3.798h2.187l0.058,10.647h4.489l-0.058-10.676"/>
</svg>
