<?php xml version="1.0" encoding="utf-8"?>
<!-- Generator: Adobe Illustrator 17.0.0, SVG Export Plug-In . SVG Version: 6.00 Build 0)  -->
<!DOCTYPE svg PUBLIC "-//W3C//DTD SVG 1.1//EN" "http://www.w3.org/Graphics/SVG/1.1/DTD/svg11.dtd">
<svg version="1.1" id="Capa_1" xmlns="http://www.w3.org/2000/svg" xmlns:xlink="http://www.w3.org/1999/xlink" x="0px" y="0px"
	 width="31.512px" height="31.512px" viewBox="0 0 31.512 31.512" enable-background="new 0 0 31.512 31.512" xml:space="preserve">
<path fill="#51256A" d="M15.756,31.512L15.756,31.512C7.09,31.512,0,24.422,0,15.756v0C0,7.09,7.09,0,15.756,0h0
	c8.666,0,15.756,7.09,15.756,15.756v0C31.512,24.422,24.422,31.512,15.756,31.512z"/>
<path fill="#FFFFFF" d="M20.685,25.685h-9.191c-2.87,0-5.218-2.348-5.218-5.218v-9.181c0-2.87,2.348-5.218,5.218-5.218h9.191
	c2.87,0,5.218,2.348,5.218,5.218v9.181C25.903,23.337,23.555,25.685,20.685,25.685z"/>
<circle fill="#51256A" cx="15.756" cy="15.756" r="4.584"/>
<circle fill="#51256A" stroke="#51256A" stroke-miterlimit="10" cx="21.434" cy="10.078" r="1.094"/>
</svg>
