<?php xml version="1.0" encoding="utf-8"?>
<!-- Generator: Adobe Illustrator 17.0.0, SVG Export Plug-In . SVG Version: 6.00 Build 0)  -->
<!DOCTYPE svg PUBLIC "-//W3C//DTD SVG 1.1//EN" "http://www.w3.org/Graphics/SVG/1.1/DTD/svg11.dtd">
<svg version="1.1" id="Capa_1" xmlns="http://www.w3.org/2000/svg" xmlns:xlink="http://www.w3.org/1999/xlink" x="0px" y="0px"
	 width="30.267px" height="30.267px" viewBox="0 0 30.267 30.267" enable-background="new 0 0 30.267 30.267" xml:space="preserve">
<path fill="#51256A" d="M15.135,0C6.777,0,0,6.775,0,15.134c0,6.196,3.727,11.52,9.061,13.86c-0.044-1.056-0.008-2.325,0.263-3.475
	c0.291-1.228,1.946-8.247,1.946-8.247s-0.483-0.966-0.483-2.394c0-2.244,1.301-3.918,2.919-3.918c1.376,0,2.042,1.034,2.042,2.272
	c0,1.385-0.883,3.453-1.336,5.37c-0.38,1.606,0.805,2.914,2.388,2.914c2.868,0,4.798-3.682,4.798-8.045
	c0-3.316-2.234-5.799-6.296-5.799c-4.591,0-7.45,3.423-7.45,7.246c0,1.319,0.388,2.249,0.997,2.968
	c0.281,0.332,0.318,0.464,0.218,0.844c-0.072,0.276-0.239,0.949-0.308,1.214C8.656,20.33,8.346,20.467,8,20.325
	c-2.115-0.864-3.1-3.179-3.1-5.781c0-4.299,3.625-9.455,10.815-9.455c5.779,0,9.581,4.182,9.581,8.669
	c0,5.938-3.3,10.372-8.167,10.372c-1.633,0-3.17-0.883-3.695-1.886c0,0-0.879,3.486-1.065,4.16c-0.32,1.166-0.949,2.332-1.523,3.241
	c1.361,0.403,2.799,0.622,4.289,0.622c8.357,0,15.133-6.776,15.133-15.133C30.267,6.775,23.492,0,15.135,0"/>
</svg>
